<?xml version="1.0" encoding="UTF-8"?>
<svg id="Layer_1" data-name="Layer 1" xmlns="http://www.w3.org/2000/svg" xmlns:xlink="http://www.w3.org/1999/xlink" viewBox="0 0 5000 3000">
  <defs>
    <style>
      .cls-1 {
        fill: url(#linear-gradient);
      }

      .cls-1, .cls-2, .cls-3, .cls-4, .cls-5, .cls-6 {
        stroke-width: 0px;
      }

      .cls-2 {
        opacity: .8;
      }

      .cls-2, .cls-3 {
        fill: #263336;
      }

      .cls-3 {
        opacity: .3;
      }

      .cls-4 {
        fill: #151d1f;
      }

      .cls-5 {
        fill: #1f2a2c;
      }

      .cls-6 {
        fill: #fff;
      }
    </style>
    <linearGradient id="linear-gradient" x1="2499.97" y1="1498.33" x2="2469.98" y2="-247.32" gradientUnits="userSpaceOnUse">
      <stop offset="0" stop-color="#2b4856"/>
      <stop offset="1" stop-color="#14171e"/>
    </linearGradient>
  </defs>
  <rect class="cls-1" width="5000" height="3000"/>
  <path class="cls-3" d="m4555.1,1808.4c-190.93-87.51-392.39-11.59-506.59,49.58-141.55-20.83-353.24-45.41-495.81-89.23-168.07-51.66-324.13,195.71-456.19,206.26-132.05,10.55-492.19-58.57-596.51-103.13-104.32-44.56-219.81,92.58-364.93,0-145.13-92.58-191.02,56.57-351.12,92.58-160.1,36.02-356.1-24.01-608.2-121.87-252.1-97.85-300.12-94.21-648.26-10.18-180.75,43.63-358.26,71.07-527.49,68.9v1098.69h5000v-1098.69c-156.73-2-306.36-29.42-444.9-92.91Z"/>
  <path class="cls-2" d="m5000,2209.88v790.12H0v-790.12c179.98-67.09,201.5-153.36,477-92.88,328,72,480,200,720,176s200-181.31,464-110.66c264,70.66,470,142.66,839,46.66s313-168,553-80,320,18.69,440,33.34c120,14.66,144-78.65,360,0,4.67,1.7,9.32,3.33,13.95,4.92,94.78-78.21,249.83-160.59,440.35-94.26,321.7,112,265.7,216,569.7,152,48.66-10.24,88.71-22.33,123-35.12Z"/>
  <circle class="cls-6" cx="4576.02" cy="295.79" r="7.5"/>
  <circle class="cls-6" cx="3540.5" cy="541" r="7.5"/>
  <circle class="cls-6" cx="2812.5" cy="237" r="7.5"/>
  <circle class="cls-6" cx="1932.5" cy="421" r="7.5"/>
  <circle class="cls-6" cx="1124.5" cy="244.5" r="7.5"/>
  <circle class="cls-6" cx="549" cy="556" r="7.5"/>
  <circle class="cls-6" cx="261" cy="413.5" r="7.5"/>
  <circle class="cls-6" cx="133" cy="773" r="7.5"/>
  <circle class="cls-6" cx="4437" cy="661" r="7.5"/>
  <circle class="cls-6" cx="3245" cy="853" r="7.5"/>
  <circle class="cls-6" cx="3740.5" cy="173" r="7.5"/>
  <circle class="cls-6" cx="2300.5" cy="563.5" r="7.5"/>
  <circle class="cls-6" cx="4013" cy="428.5" r="3"/>
  <circle class="cls-6" cx="3252.5" cy="431.5" r="3"/>
  <circle class="cls-6" cx="2805" cy="668.5" r="3"/>
  <circle class="cls-6" cx="3733" cy="860.5" r="3"/>
  <circle class="cls-6" cx="4207.47" cy="1274" r="3"/>
  <circle class="cls-6" cx="4576.02" cy="965" r="3"/>
  <circle class="cls-6" cx="2056" cy="1053" r="3"/>
  <circle class="cls-6" cx="1464" cy="1317" r="3"/>
  <circle class="cls-6" cx="1165" cy="863.5" r="3"/>
  <circle class="cls-6" cx="541.5" cy="1050" r="3"/>
  <circle class="cls-6" cx="640" cy="762.5" r="3"/>
  <circle class="cls-6" cx="677" cy="229.5" r="3"/>
  <circle class="cls-6" cx="1117" cy="431.5" r="3"/>
  <circle class="cls-6" cx="1520" cy="117" r="3"/>
  <circle class="cls-6" cx="2168" cy="114" r="3"/>
  <circle class="cls-6" cx="1829" cy="720" r="3"/>
  <circle class="cls-6" cx="2497" cy="1059" r="3"/>
  <circle class="cls-6" cx="944" cy="1117" r="3"/>
  <path class="cls-5" d="m5000,2682.61v317.39H0v-317.39c84.58.26,173.3-9.64,283-50.46,147.73-54.97,310.21,16.95,353.13,38.33,68.87,29.78,274.03,26.58,342.87,29.28,92,3.62,292-19.61,368-39.67,76-20.06,240,28.06,296,27.67,56-.38,144,24.39,204,24.11s200-23.72,252-24.11c52-.38,88,32.39,172,35.15,84,2.77,324-14.76,364.65-33.87,40.65-19.11,171.35-.89,319.35,24.8,148,25.7,520-9.69,563.07-26.08,43.06-16.38,108.93,20.39,167.23,0,58.3-20.38,149.7,8.39,210.44-3.26,60.74-11.64,151.26,15.65,195.11,27.37,43.86,11.72,212.15-31.72,296.47-51.78,44.82-10.67,91.98-2.17,126.33,8.12,123.95-19.38,229.54,1.15,343.14,7.94,48.46,2.9,95.16,6.32,143.21,6.46Z"/>
  <path class="cls-4" d="m5000,2827.94v172.06H0v-172.06c48.05-.13,94.75-3.3,143.21-5.99,113.6-6.29,219.19-25.32,343.14-7.36,34.35-9.54,81.51-17.41,126.33-7.52,84.32,18.59,252.61,58.84,296.47,47.98,43.85-10.86,134.37-36.15,195.11-25.36,60.74,10.79,152.14-15.87,210.44,3.02,58.3,18.89,124.17-15.18,167.23,0,43.07,15.19,415.07,47.98,563.07,24.17,148-23.81,278.7-40.69,319.35-22.99,40.65,17.71,280.65,33.96,364.65,31.39,84-2.56,120-32.92,172-32.57,52,.36,192,22.08,252,22.34s148-22.69,204-22.34c56,.36,220-44.23,296-25.64,76,18.59,276,40.11,368,36.76,68.84-2.5,274,.47,342.87-27.13,42.92-19.82,205.4-86.47,353.13-35.53,109.7,37.83,198.42,47.01,283,46.77Z"/>
</svg>